<svg width="48" height="48" viewBox="0 0 48 48" fill="none" xmlns="http://www.w3.org/2000/svg">
  <rect x="3" y="3" width="42" height="42" rx="13" fill="#111827"/>
  <rect x="3.5" y="3.5" width="41" height="41" rx="12.5" stroke="#334155" stroke-opacity=".75"/>
  <path d="M13 31.5c4.2-7.7 17.8-7.7 22 0" stroke="#22d3ee" stroke-width="2" stroke-linecap="round"/>
  <path d="M15 17.5c3.3 2.6 5.7 6.2 7 10.5M33 17.5c-3.3 2.6-5.7 6.2-7 10.5" stroke="#10b981" stroke-width="2" stroke-linecap="round"/>
  <circle cx="24" cy="24" r="13" stroke="#64748b" stroke-opacity=".55" stroke-width="2"/>
  <circle cx="24" cy="24" r="3.25" fill="#0f172a" stroke="#e2e8f0" stroke-width="1.5"/>
  <path d="M24 11v5M24 32v5M11 24h5M32 24h5" stroke="#94a3b8" stroke-width="1.6" stroke-linecap="round"/>
  <path d="M34 10.5l3.5 1.4-1.4 3.6" stroke="#34d399" stroke-width="1.7" stroke-linecap="round" stroke-linejoin="round"/>
</svg>
