<svg xmlns="http://www.w3.org/2000/svg" viewBox="0 0 24 24" fill="none">
  <defs>
    <linearGradient id="plgold" x1="0%" y1="0%" x2="100%" y2="100%">
      <stop offset="0%" stop-color="#fbbf24"/>
      <stop offset="100%" stop-color="#f59e0b"/>
    </linearGradient>
  </defs>
  <circle cx="12" cy="12" r="10" fill="#1e1b4b"/>
  <path d="M7 8L5 4M17 8L19 4M9 6L8 3M15 6L16 3M12 5L12 3" stroke="url(#plgold)" stroke-width="2" stroke-linecap="round"/>
  <path d="M7 10C7 10 7 14 8 16C9 18 12 19 12 19C12 19 15 18 16 16C17 14 17 10 17 10" stroke="url(#plgold)" stroke-width="1.5" fill="none" stroke-linecap="round"/>
  <circle cx="9" cy="11" r="1.5" fill="url(#plgold)"/>
  <circle cx="15" cy="11" r="1.5" fill="url(#plgold)"/>
  <path d="M10 15C10 15 11 16 12 16C13 16 14 15 14 15" stroke="url(#plgold)" stroke-width="1.5" stroke-linecap="round"/>
</svg>
