<svg xmlns="http://www.w3.org/2000/svg" viewBox="0 0 24 24">
  <path d="M12 2L4 6v7c0 5 4 9 8 10 4-1 8-5 8-10V6l-8-4z" fill="#003399" stroke="#22c55e" stroke-width="1.5"/>
  <g fill="#ffcc00">
    <polygon points="12,5 12.5,6.5 14,6.5 12.75,7.5 13.25,9 12,8 10.75,9 11.25,7.5 10,6.5 11.5,6.5"/>
    <polygon points="8,8 8.4,9 9.5,9 8.6,9.6 9,10.7 8,10 7,10.7 7.4,9.6 6.5,9 7.6,9"/>
    <polygon points="16,8 16.4,9 17.5,9 16.6,9.6 17,10.7 16,10 15,10.7 15.4,9.6 14.5,9 15.6,9"/>
    <polygon points="7,13 7.4,14 8.5,14 7.6,14.6 8,15.7 7,15 6,15.7 6.4,14.6 5.5,14 6.6,14"/>
    <polygon points="17,13 17.4,14 18.5,14 17.6,14.6 18,15.7 17,15 16,15.7 16.4,14.6 15.5,14 16.6,14"/>
    <polygon points="12,16 12.4,17 13.5,17 12.6,17.6 13,18.7 12,18 11,18.7 11.4,17.6 10.5,17 11.6,17"/>
  </g>
</svg>
