<svg xmlns="http://www.w3.org/2000/svg" viewBox="0 0 24 24">
  <path d="M12 2L4 6v7c0 5 4 9 8 10 4-1 8-5 8-10V6l-8-4z" fill="#003087" stroke="#22c55e" stroke-width="1.5"/>
  <path d="M8.5 5.5h7v4c0 2-1 3.5-3.5 4.5-2.5-1-3.5-2.5-3.5-4.5v-4z" fill="none" stroke="#ffd700" stroke-width="1.5" stroke-linejoin="round"/>
  <path d="M8.5 6.5C6.5 6.5 5.5 8 5.5 9.5s1 2.5 3 2.5" fill="none" stroke="#ffd700" stroke-width="1.5" stroke-linecap="round"/>
  <path d="M15.5 6.5c2 0 3 1.5 3 3s-1 2.5-3 2.5" fill="none" stroke="#ffd700" stroke-width="1.5" stroke-linecap="round"/>
  <path d="M12 14v2.5M9.5 17.5h5M9 19h6" stroke="#ffd700" stroke-width="1.5" stroke-linecap="round"/>
</svg>
