<?xml version="1.0" encoding="UTF-8"?>
<svg id="Layer_1" xmlns="http://www.w3.org/2000/svg" width="200" height="200" version="1.1" viewBox="0 0 200 200">
  <!-- Generator: Adobe Illustrator 30.7.0, SVG Export Plug-In . SVG Version: 2.1.4 Build 114)  -->
  <defs>
    <style>
      .st0 {
        fill: #1dd354;
      }

      .st1 {
        isolation: isolate;
      }

      .st2 {
        display: none;
      }

      .st2, .st3 {
        fill: #fff;
      }
    </style>
  </defs>
  <g>
    <g class="st1">
      <g class="st1">
        <path class="st0" d="M4.9,80.3h8.1v39.1H4.9v-39.1Z"/>
        <path class="st0" d="M17.8,80.3h8.7l8.5,29.7,8.6-29.7h8.5l-13.3,39.1h-7.7l-13.2-39.1Z"/>
        <path class="st0" d="M88.5,80.3l-13.1,24.4v14.7h-8.2v-14.7l-13.5-24.4h9.6l8.1,17,7.8-17h9.3Z"/>
      </g>
    </g>
    <g class="st1">
      <g class="st1">
        <g class="st1">
          <path class="st3" d="M109,119.5h-17.7v-39.1h19c4.8,0,8.2,1.5,10.2,4.2,1.2,1.7,1.8,3.7,1.8,6s-.6,4.3-1.8,5.8c-.7.8-1.7,1.6-3,2.2,2,.7,3.5,1.9,4.5,3.4,1,1.6,1.5,3.5,1.5,5.7s-.6,4.4-1.8,6.2c-.7,1.2-1.7,2.2-2.8,3.1-1.3,1-2.7,1.6-4.4,2s-3.6.5-5.6.5h0ZM112.9,94.9c1.1-.6,1.6-1.8,1.6-3.4s-.7-3-2.1-3.6c-1.2-.4-2.8-.6-4.7-.6h-8.6v8.6h9.6c1.7,0,3.1-.3,4.2-1h0ZM108.9,102.3h-9.7v10.4h9.6c1.7,0,3.1-.2,4-.7,1.7-.8,2.6-2.5,2.6-4.9s-.8-3.4-2.5-4.2c-.9-.4-2.3-.6-4-.7h0Z"/>
          <path class="st3" d="M157.6,102.5h-19v10.1h21.6v7h-29.6v-39.1h28.7v6.9h-20.7v8.3h19v6.8h0Z"/>
          <path class="st3" d="M195.1,80.4v6.9h-11.7v32.2h-8.2v-32.2h-11.8v-6.9h31.7Z"/>
        </g>
      </g>
    </g>
  </g>
  <rect class="st2" width="200" height="200"/>
</svg>